{"glyphs":{" ":{"ha":406,"x_min":0,"x_max":0,"o":""}," ":{"ha":406,"x_min":0,"x_max":0,"o":""},"!":{"ha":374,"x_min":0,"x_max":374,"o":"m 337 1040 q 374 876 374 988 q 264 393 319 393 q 82 339 175 339 l 55 339 q 27 412 27 345 l 37 420 l 27 430 l 27 530 q 0 903 27 729 q 337 1040 142 981 m 246 266 q 337 239 337 261 l 337 193 q 109 75 256 107 l 73 75 q 18 175 45 75 l 18 184 q 246 266 18 245 z "},"*":{"ha":838,"x_min":0,"x_max":838,"o":"m 525 923 q 616 707 604 707 l 622 707 l 823 743 l 836 725 q 705 515 838 690 l 827 313 q 665 121 787 250 q 550 201 640 119 l 410 292 q 135 165 374 290 l 129 164 q 84 199 100 173 l 83 205 l 204 366 l 210 385 q 1 485 120 449 l 0 515 l 146 664 l 158 665 l 294 647 l 324 649 q 372 792 332 790 q 494 916 474 914 l 525 923 z "},".":{"ha":282,"x_min":0,"x_max":282,"o":"m 216 288 q 282 138 231 288 q 228 60 282 104 q 138 20 176 18 l 120 20 q 0 174 45 20 q 216 288 135 258 z "},"?":{"ha":719,"x_min":0,"x_max":719,"o":"m 616 1090 l 676 1090 q 719 1004 702 1090 l 719 962 q 531 525 719 876 l 531 508 l 702 482 l 702 439 l 608 345 l 454 302 l 368 302 q 248 397 308 302 q 445 748 387 617 l 454 817 l 420 817 q 283 722 354 817 l 77 585 l 60 585 l 0 662 l 0 671 q 359 979 25 762 q 616 1090 557 1090 m 564 232 l 572 232 l 589 215 q 435 61 589 145 q 349 121 380 61 l 349 163 q 444 215 349 184 l 444 207 q 564 232 500 232 z "},"a":{"ha":867,"x_min":0,"x_max":867,"o":"m 510 1006 l 552 894 q 734 509 592 844 l 831 251 q 867 174 867 204 l 867 167 q 692 34 806 104 q 524 90 542 48 q 608 132 524 104 q 510 300 552 245 q 196 230 420 251 l 56 146 l 49 146 q 0 195 0 146 q 42 279 5 279 l 42 286 q 7 341 7 291 q 133 397 11 357 q 266 810 266 661 l 258 865 l 510 1006 m 406 488 l 349 383 l 349 355 l 391 349 l 475 370 l 406 488 z "},"b":{"ha":933,"x_min":0,"x_max":933,"o":"m 244 1001 q 545 876 317 928 q 821 838 810 850 l 821 832 q 608 588 733 709 l 639 581 l 795 594 q 933 507 911 594 q 557 93 933 365 q 526 56 557 73 l 470 56 q 257 130 257 67 q 157 575 225 408 q 0 801 82 724 l 0 819 l 19 857 l 12 882 q 238 1001 35 882 l 244 1001 m 445 675 l 463 612 l 513 663 l 513 669 l 476 669 l 445 675 m 519 406 l 545 218 l 557 218 l 682 350 l 689 381 q 626 418 689 418 l 519 406 z "},"c":{"ha":967,"x_min":0,"x_max":967,"o":"m 287 892 l 369 892 q 427 875 427 889 l 435 884 q 852 842 555 859 l 902 850 l 902 842 l 910 850 l 951 850 l 967 834 q 779 596 967 783 l 418 596 l 484 315 q 910 416 855 416 l 943 391 q 393 104 748 248 l 319 88 l 156 449 q 0 728 156 471 l 0 752 l 164 859 l 287 892 z "},"d":{"ha":947,"x_min":0,"x_max":947,"o":"m 290 956 l 305 956 q 771 673 461 753 q 947 597 947 618 l 947 589 q 527 215 733 321 q 244 78 440 144 l 183 70 l 168 85 q 145 353 160 307 l 153 360 l 153 368 q 16 757 88 638 l 0 772 q 221 925 0 829 q 290 956 262 956 m 481 490 l 481 482 l 496 330 l 511 330 q 633 452 633 416 l 626 452 l 481 490 z "},"e":{"ha":1008,"x_min":0,"x_max":1008,"o":"m 199 919 l 321 888 l 359 903 l 427 835 q 565 804 507 804 l 687 819 l 687 812 l 733 827 l 741 819 q 840 850 741 844 l 855 835 q 588 713 840 791 q 435 667 435 690 q 572 591 435 591 l 581 598 l 618 591 l 649 591 l 687 598 l 687 591 l 985 644 l 1008 636 l 1008 613 q 603 468 865 541 q 473 407 473 446 l 473 392 l 488 262 q 840 437 640 323 l 909 460 l 916 453 l 916 437 q 633 193 911 381 q 328 41 483 108 l 313 56 l 290 41 l 229 315 q 199 399 216 399 l 46 399 l 23 422 l 23 476 q 138 552 100 552 q 54 690 108 690 q 0 713 0 690 l 0 735 q 153 873 0 795 q 199 919 153 890 z "},"f":{"ha":1114,"x_min":0,"x_max":1114,"o":"m 443 978 l 450 978 q 822 803 678 810 l 845 794 l 853 802 l 907 791 l 1062 790 q 1114 741 1091 789 q 666 648 1111 678 l 666 640 q 747 418 702 586 l 755 418 l 1040 512 l 1087 525 l 1095 524 l 1102 516 l 1110 516 q 756 294 1105 429 q 697 203 746 201 q 427 94 503 90 l 428 109 l 420 102 l 405 102 l 390 119 l 395 219 l 247 212 l 154 216 q 1 271 0 239 l 2 279 q 132 380 5 337 l 155 372 l 195 393 l 295 388 l 372 376 q 152 768 332 525 l 156 838 q 347 929 177 871 q 443 978 411 980 z "},"g":{"ha":884,"x_min":0,"x_max":884,"o":"m 731 968 q 784 749 758 968 q 532 643 593 643 l 525 643 l 518 649 l 511 643 l 498 643 q 406 715 444 715 q 306 543 321 634 l 299 510 l 306 503 q 810 676 557 575 l 857 682 l 884 636 l 824 138 l 824 125 q 870 85 857 125 q 598 -75 870 29 l 578 -62 l 571 -68 l 565 -68 q 538 5 545 -68 l 545 5 l 538 12 l 558 138 l 551 158 l 558 178 l 551 178 l 385 158 l 366 158 l 359 164 l 352 158 q 26 344 163 158 l 0 444 q 319 822 0 686 q 671 941 469 882 q 731 968 701 968 m 366 390 q 525 330 419 330 l 525 344 l 532 344 q 452 397 520 397 l 399 397 l 366 390 z "},"h":{"ha":972,"x_min":0,"x_max":972,"o":"m 794 1014 l 830 975 l 827 892 q 963 245 833 820 l 964 229 q 760 -15 972 115 q 616 41 676 -21 l 654 85 l 654 93 l 594 351 q 418 290 416 310 q 296 166 422 224 q 177 100 208 102 q 82 168 85 116 l 104 317 q 1 392 47 331 l 0 400 q 117 482 21 431 l 117 728 l 385 878 l 410 880 l 418 872 l 419 864 l 420 610 l 426 528 l 550 512 q 505 804 521 585 l 504 821 q 653 922 532 875 q 794 1014 652 941 z "},"i":{"ha":907,"x_min":0,"x_max":907,"o":"m 588 1255 q 637 1223 637 1239 q 572 1076 631 1158 l 596 1067 l 670 1084 l 727 1059 l 555 928 q 596 847 580 928 q 572 814 572 847 l 564 806 l 555 806 l 564 798 l 564 790 q 425 724 534 762 l 416 724 q 311 806 351 806 l 294 790 l 277 790 q 237 896 252 794 l 253 912 q 172 1100 172 1039 q 229 1157 190 1139 l 253 1157 l 269 1141 l 277 1149 l 286 1149 l 368 1108 l 384 1124 l 392 1124 l 457 1076 q 547 1239 482 1170 l 555 1231 l 564 1231 q 588 1255 588 1231 m 261 700 q 498 627 437 627 q 572 667 527 627 l 580 667 l 588 659 l 596 667 l 629 667 q 703 618 676 618 q 776 545 703 604 l 776 536 q 653 504 653 526 l 653 447 q 711 275 653 275 l 874 292 l 882 292 l 907 267 l 907 259 l 841 218 l 841 227 q 123 31 245 31 q 57 79 62 60 q 163 153 81 153 q 327 193 163 165 l 302 504 l 294 504 q 16 577 16 504 l 0 618 l 0 635 q 41 651 0 651 q 131 675 41 665 l 139 684 l 204 684 l 261 700 z "},"j":{"ha":865,"x_min":0,"x_max":865,"o":"m 642 960 q 865 360 865 630 q 505 94 865 227 l 368 86 q 0 326 0 168 l 94 420 l 274 488 l 300 514 l 309 514 l 309 497 q 342 463 342 497 l 334 412 q 522 300 334 361 q 334 771 522 463 q 557 908 393 837 l 583 934 l 591 925 q 642 960 608 960 z "},"k":{"ha":977,"x_min":0,"x_max":977,"o":"m 319 918 q 411 650 368 871 l 568 783 l 599 784 l 607 777 l 867 852 l 876 845 l 876 830 q 600 597 718 661 l 602 582 l 694 595 q 977 243 895 605 l 704 113 q 602 262 610 108 q 422 425 534 431 l 412 182 l 414 152 q 140 36 346 104 l 93 34 l 52 71 l 51 94 q 91 228 49 127 l 98 392 l 97 408 l 87 438 l 94 462 l 84 500 l 91 524 q 18 730 79 525 q 0 768 4 730 q 19 847 16 769 l 27 840 l 51 841 l 89 851 l 90 843 l 204 888 l 212 880 l 319 918 z "},"l":{"ha":1025,"x_min":0,"x_max":1025,"o":"m 336 876 q 416 715 416 758 l 416 571 q 416 435 422 481 l 401 298 l 633 363 l 608 441 l 634 458 l 761 523 l 809 539 l 881 555 q 1025 411 928 541 l 1025 378 q 905 258 1025 323 q 801 195 905 232 l 729 210 l 721 202 l 601 202 q 136 58 299 141 l 112 50 l 112 58 l 104 50 l 96 50 q 40 146 40 50 l 40 162 l 56 186 l 48 195 q 96 387 62 298 l 96 435 q 8 675 96 574 l 16 683 l 16 691 l 0 755 q 136 811 7 773 q 233 843 136 825 q 336 876 291 876 z "},"m":{"ha":1010,"x_min":0,"x_max":1010,"o":"m 777 972 l 791 972 q 823 830 804 972 l 920 545 q 1010 325 1010 397 q 732 -6 1010 194 q 576 -58 642 -58 l 570 -38 q 719 117 570 -26 q 745 195 745 170 q 700 305 721 305 q 460 150 509 150 l 414 176 l 317 357 l 311 357 q 58 208 267 299 l 39 208 l 33 214 l 26 208 l 20 208 q 0 247 0 214 l 0 260 q 142 603 142 446 l 142 642 l 130 701 q 266 798 130 734 l 363 849 l 389 849 q 518 603 412 840 l 525 603 l 544 778 l 538 785 l 538 791 q 719 940 538 850 q 777 972 748 972 z "},"n":{"ha":869,"x_min":0,"x_max":869,"o":"m 728 1071 q 805 955 805 1056 q 869 163 805 621 q 702 41 834 123 q 618 15 702 25 q 328 324 541 127 q 251 214 308 214 q 142 157 222 186 q 58 124 132 124 l 52 124 l 0 182 l 0 195 l 6 201 l 0 221 q 58 472 58 326 l 58 478 q 32 665 58 553 q 109 717 81 688 q 199 730 144 730 q 309 768 199 745 l 528 536 l 528 697 q 515 890 528 814 q 412 923 466 890 l 412 942 q 593 1051 464 1019 l 728 1071 z "},"o":{"ha":833,"x_min":0,"x_max":833,"o":"m 463 883 l 490 883 q 522 829 506 883 q 787 698 635 829 q 833 585 833 624 l 833 539 q 562 195 833 418 q 344 129 461 129 q 20 354 165 129 l 0 466 q 112 698 0 580 q 192 784 132 698 q 252 817 210 784 l 258 817 l 264 810 l 271 810 q 463 883 318 841 m 317 651 q 284 592 284 632 l 284 559 q 423 360 284 462 l 496 340 q 562 460 532 340 q 317 651 562 563 z "},"p":{"ha":953,"x_min":0,"x_max":953,"o":"m 262 983 l 286 983 q 699 745 484 817 q 953 650 953 673 q 516 364 953 594 l 516 348 l 524 269 l 516 269 l 524 260 l 524 253 l 516 245 l 516 237 l 524 189 q 231 54 424 121 q 206 94 212 54 l 214 189 l 206 245 l 214 245 l 206 253 l 206 300 l 191 412 l 199 412 q 16 785 130 647 l 0 808 l 0 817 l 262 983 m 492 538 l 508 427 l 619 499 l 619 507 l 492 538 z "},"q":{"ha":1072,"x_min":0,"x_max":1072,"o":"m 616 920 q 810 836 810 892 l 810 827 q 734 768 768 768 l 734 751 q 920 591 920 709 l 945 481 l 971 465 l 1055 473 l 1072 448 q 878 338 1019 389 q 600 118 756 187 q 448 68 538 68 l 422 68 q 8 372 132 68 l 0 439 q 321 793 0 641 q 616 920 466 920 m 346 675 q 313 541 313 614 q 346 448 321 448 l 566 591 l 616 557 l 625 557 l 625 566 l 557 633 l 549 625 l 532 625 q 346 675 459 675 m 616 321 l 439 321 q 583 245 511 245 l 608 245 q 659 329 659 279 l 616 321 z "},"r":{"ha":946,"x_min":0,"x_max":946,"o":"m 274 1029 q 795 871 274 979 q 850 850 795 862 l 850 830 q 637 576 754 663 l 637 563 l 686 563 l 713 556 l 720 563 q 946 488 939 551 q 829 172 946 462 l 823 144 q 857 124 857 136 l 857 103 q 610 -54 710 -22 l 596 -41 l 589 -47 l 562 -47 l 555 -41 l 549 -41 q 692 343 549 66 l 699 350 l 692 371 q 569 391 660 391 l 528 391 l 542 268 q 274 117 324 117 l 240 151 l 240 186 q 0 850 240 516 l 20 912 l 14 932 l 274 1029 m 432 734 q 480 604 480 635 l 487 604 q 569 700 524 631 q 432 734 550 716 z "},"s":{"ha":886,"x_min":0,"x_max":886,"o":"m 559 966 q 661 863 565 938 l 695 823 q 484 659 694 802 l 464 659 q 273 774 352 774 l 266 774 l 266 741 q 695 502 266 601 q 886 420 886 466 l 886 414 q 532 148 756 267 q 96 52 305 52 q 75 120 75 76 q 225 318 128 318 q 389 366 353 366 l 395 359 l 395 345 q 355 195 355 245 q 627 311 532 195 q 68 530 180 423 q 0 666 0 595 q 177 857 0 752 q 402 945 266 877 l 559 966 z "},"t":{"ha":1214,"x_min":0,"x_max":1214,"o":"m 626 1034 q 674 917 661 998 l 666 916 l 675 909 l 680 829 l 694 750 l 686 750 l 694 743 l 698 694 l 924 654 l 989 651 l 1020 661 q 1181 640 1180 659 l 1189 649 l 1213 650 l 1214 635 q 709 528 946 590 l 727 393 l 727 385 l 722 353 l 733 305 l 1086 506 l 1126 509 q 1144 486 1143 510 q 909 309 1124 438 q 481 24 656 103 l 436 85 l 439 157 l 429 196 l 444 213 l 435 340 l 414 515 l 319 508 l 286 514 l 263 505 q 9 583 15 505 l 0 606 q 247 735 102 679 l 385 705 l 385 713 q 342 869 379 787 l 578 1022 l 626 1034 z "},"u":{"ha":932,"x_min":0,"x_max":932,"o":"m 313 902 l 330 902 q 381 682 360 902 q 321 301 372 545 l 330 292 l 339 292 q 568 360 568 322 l 457 682 q 754 791 711 791 l 787 614 q 847 487 825 487 q 915 352 890 487 q 932 301 926 352 q 635 132 863 229 q 593 250 600 170 q 127 115 304 115 l 26 98 l 0 191 q 68 589 68 460 l 59 631 l 68 631 l 34 784 q 313 902 181 860 z "},"v":{"ha":886,"x_min":0,"x_max":886,"o":"m 606 968 q 877 787 877 865 l 886 778 l 886 768 q 751 326 886 663 q 416 36 751 181 q 45 497 369 150 l 0 578 l 0 588 q 253 696 0 618 q 389 624 389 690 q 507 452 467 547 l 524 452 q 624 760 624 665 q 434 886 624 886 l 425 895 l 425 913 l 606 968 z "},"w":{"ha":924,"x_min":0,"x_max":924,"o":"m 734 1207 q 895 1086 895 1160 q 924 943 924 1035 q 884 547 924 793 q 832 145 832 344 q 631 7 788 101 l 459 427 l 454 427 l 413 226 q 287 151 349 169 q 230 105 287 142 l 224 105 q 149 271 197 122 q 5 524 85 425 l 0 541 q 52 599 0 599 q 189 650 81 620 l 201 650 q 281 536 210 650 q 316 753 316 648 l 310 783 q 517 863 456 863 q 614 593 534 836 l 648 513 l 654 513 q 706 794 682 599 l 701 800 l 706 828 q 597 1069 701 1026 l 528 1058 l 517 1075 l 517 1093 q 689 1202 517 1168 l 734 1207 z "},"x":{"ha":926,"x_min":0,"x_max":926,"o":"m 783 918 l 854 918 l 882 892 l 882 874 l 632 509 l 828 357 q 926 304 879 357 l 926 260 q 694 81 894 215 q 401 269 422 269 q 205 99 262 99 l 151 99 q 98 126 105 99 q 169 224 98 194 l 302 375 q 0 705 0 618 l 258 856 l 330 865 q 507 633 467 662 l 517 633 l 552 722 l 534 741 l 783 918 z "},"y":{"ha":915,"x_min":0,"x_max":915,"o":"m 881 934 l 915 874 l 847 425 l 856 400 q 839 222 856 278 l 847 214 l 847 205 l 839 197 l 839 189 l 856 138 q 610 -49 856 98 l 296 19 l 296 44 l 398 129 l 407 121 l 415 121 q 457 146 415 142 q 534 189 457 165 l 542 197 l 542 324 l 534 324 q 254 197 288 197 q 144 459 215 253 q 0 713 41 664 l 0 739 l 288 900 l 296 900 q 491 425 424 768 q 559 468 559 454 l 559 502 q 576 654 559 612 q 542 705 542 671 q 847 925 585 756 l 881 934 z "},"z":{"ha":961,"x_min":0,"x_max":961,"o":"m 932 973 q 961 922 961 961 q 682 577 802 660 l 492 416 l 492 408 q 528 393 528 408 l 536 401 l 638 364 l 638 372 q 844 548 638 484 q 909 401 909 548 l 902 401 l 954 218 l 954 189 q 763 12 876 100 l 748 12 q 448 174 614 155 q 235 210 327 210 l 227 210 l 117 203 l 88 262 q 227 364 89 288 l 455 496 q 646 724 646 667 l 638 724 q 404 673 490 709 l 404 665 l 440 592 l 440 577 l 242 445 q 140 526 140 445 q 7 650 64 650 l 0 673 q 102 746 1 696 l 235 833 l 264 827 q 814 937 373 827 q 932 973 880 937 z "}}}
